<svg width="301" height="300" viewBox="0 0 301 300" fill="none" xmlns="http://www.w3.org/2000/svg">
    <path d="M297.918 169.416L160.559 160.146L286.362 210.844C292.089 197.897 296.044 183.984 297.918 169.416Z" fill="black"/>
    <path d="M269.71 239.454C242.492 276.198 198.929 300 149.831 300C67.3602 300 0.504333 232.843 0.504333 150C0.504333 67.1573 67.3602 0 149.831 0C199.02 0 242.655 23.8911 269.862 60.7518L145.112 127.827L225.39 45H180.891L126.237 121.203V45H90.1003V255H126.237V178.92L180.891 255H225.39L147.197 174.777L269.71 239.454Z" fill="black"/>
    <path d="M286.362 89.1559L161.437 139.494L297.918 130.581C296.043 116.014 292.088 102.102 286.362 89.1559Z" fill="black"/>
</svg>
